/* XPM */
static char *composite32x32[] = {
/* columns rows colors chars-per-pixel */
"32 32 207 2 ",
"   c black",
".  c #000102",
"X  c #010102",
"o  c #010203",
"O  c #010204",
"+  c #010205",
"@  c #020305",
"#  c #000206",
"$  c #000307",
"%  c #020306",
"&  c #020406",
"*  c #020407",
"=  c #000308",
"-  c #000309",
";  c #000409",
":  c #030508",
">  c #030509",
",  c #00040A",
"<  c #00040B",
"1  c #03060A",
"2  c #02060B",
"3  c #04060B",
"4  c #00050C",
"5  c #00050D",
"6  c #00060E",
"7  c #00060F",
"8  c #000713",
"9  c #000813",
"0  c #060A11",
"q  c #000814",
"w  c #000A19",
"e  c #000B1C",
"r  c #030D1C",
"t  c #0A111D",
"y  c #000D21",
"u  c #000F27",
"i  c #021025",
"p  c #0D1726",
"a  c #00112A",
"s  c #131F2F",
"d  c #001432",
"f  c #02193B",
"g  c #00193E",
"h  c #00193F",
"j  c #021C43",
"k  c #001B44",
"l  c #001D48",
"z  c #1A2F4F",
"x  c #002152",
"c  c #002255",
"v  c #012356",
"b  c #022458",
"n  c #02255A",
"m  c #03275C",
"M  c #04285C",
"N  c #04285E",
"B  c #0E2E5E",
"V  c #283A56",
"C  c #2A3C57",
"Z  c #002761",
"A  c #072B62",
"S  c #002864",
"D  c #092E67",
"F  c #002A68",
"G  c #0A2F68",
"H  c #0B326C",
"J  c #0C326C",
"K  c #0D336C",
"L  c #0C336E",
"P  c #002D70",
"I  c #002F74",
"U  c #002F75",
"Y  c #0A3574",
"T  c #003078",
"R  c #003079",
"E  c #103874",
"W  c #103876",
"Q  c #113A77",
"!  c #173E77",
"~  c #123B78",
"^  c #143E7D",
"/  c #143F7E",
"(  c #223D65",
")  c #24416C",
"_  c #264371",
"`  c #264573",
"'  c #284777",
"]  c #2F4D79",
"[  c #465D7F",
"{  c #003482",
"}  c #003583",
"|  c #003585",
" . c #0B3C84",
".. c #00398E",
"X. c #00398F",
"o. c #073D8E",
"O. c #083F93",
"+. c #003E9B",
"@. c #003F9D",
"#. c #013F9D",
"$. c #164181",
"%. c #174384",
"&. c #184385",
"*. c #184484",
"=. c #194486",
"-. c #1C498C",
";. c #1C498D",
":. c #064097",
">. c #03419E",
",. c #02429F",
"<. c #1E4B90",
"1. c #1F4E93",
"2. c #214987",
"3. c #2C4F84",
"4. c #3C5C8E",
"5. c #2D5796",
"6. c #23529A",
"7. c #305690",
"8. c #315994",
"9. c #345D9B",
"0. c #0040A0",
"q. c #0042A4",
"w. c #0043A6",
"e. c #0044AA",
"r. c #0045AD",
"t. c #0146AC",
"y. c #0147AE",
"u. c #0046AF",
"i. c #004AB9",
"p. c #004BBB",
"a. c #004BBC",
"s. c #004CBD",
"d. c #2758A3",
"f. c #295BA6",
"g. c #295CA7",
"h. c #2B5EAB",
"j. c #2B5FAC",
"k. c #2C60AC",
"l. c #3963A2",
"z. c #3863A3",
"x. c #3864A7",
"c. c #3967AC",
"v. c #3C68AA",
"b. c #3A68AD",
"n. c #3A69AF",
"m. c #2F64B4",
"M. c #3166B7",
"N. c #3C6BB3",
"B. c #3F6DB4",
"V. c #3268B9",
"C. c #3369BA",
"Z. c #346BBD",
"A. c #5979AB",
"S. c #4875B7",
"D. c #4073BF",
"F. c #004EC2",
"G. c #004FC4",
"H. c #0051C9",
"J. c #0051CA",
"K. c #0052CC",
"L. c #0053CF",
"P. c #0054D1",
"I. c #0054D2",
"U. c #0055D3",
"Y. c #0055D4",
"T. c #376EC2",
"R. c #3871C5",
"E. c #3971C6",
"W. c #3972C7",
"Q. c #3972C8",
"!. c #3E79D1",
"~. c #4074C1",
"^. c #457CCE",
"/. c #407BD5",
"(. c #417CD6",
"). c #427FD9",
"_. c #427EDA",
"`. c #6F8EBD",
"'. c #6F8FBF",
"]. c #5483C9",
"[. c #4482DE",
"{. c #4882D8",
"}. c #4B86DE",
"|. c #7B9CCE",
" X c #6394DF",
".X c #4786E3",
"XX c #4886E4",
"oX c #4887E6",
"OX c #4C88E3",
"+X c #4B8BEB",
"@X c #4B8CEC",
"#X c #4F8EEC",
"$X c #4D8EEF",
"%X c #508FEF",
"&X c #4D8EF0",
"*X c #4E90F2",
"=X c #4F91F4",
"-X c #5091F4",
";X c #5193F8",
":X c #5294F8",
">X c #5295FA",
",X c #5396FA",
"<X c #5598FE",
"1X c #5599FF",
"2X c #699CE9",
"3X c #6EA2F0",
"4X c None",
/* pixels */
"4X4X4X> > * : : > * : : : : : : : : : : * 4X4X4X4X4X4X4X4X4X4X4X",
"4X* * ` x.n.n.n.n.n.n.n.n.n.n.n.n.n.n.9.z X 4X4X4X4X4X4X4X4X4X4X",
"4XO ^.1X1X1X1X1X1X1X,X$X.X&X<X1X1X1X1X1X1X8.* 4X4X4X4X4X4X4X4X4X",
"> ) 1X1X1X1X1X,XV./ c c c c b W M.;X1X1X1X1Xp 4X4X4X4X4X4X4X4X4X",
"> c.1X1X1X1X).G c c c c c c c c x ;.1X1X1X1X( * 4X4X4X4X4X4X4X4X",
"X D.1X1X1X/.b c c c c c M M c c c ;.1X1X1X1X' > 4X4X4X4X4X4X4X4X",
"X D.1X1X=XA c c c c f.+X<X<X+XR.E ;.1X1X1X1X' > 4X4X4X4X4X4X4X4X",
"X D.1X1Xg.c c c c Q.1X1X1X1X1X1X<X.X1X1X1X1X' > 4X4X4X4X4X4X4X4X",
"X D.1X1XJ c c c *.1X1X1X1X1X1X1X1X1X1X1X1X1X' : 4X4X4X4X4X4X4X4X",
"X D.1X$Xc c c c T.1X1X1X1X1X1X1X1X1X1X1X1X1X' : 4X4X4X4X4X4X4X4X",
"X D.1X[.c c c c ).1X1X1X1X1X1X1X1X1X1X1X1X1X' i a > 4X4X4X4X4X4X",
"X D.1X(.c c c c oX1X1X1X1X1X1X1X1X1X1X1X1X1X' j Y.{ - - 4X4X4X4X",
"X D.1X.Xc c c c !.1X1X1X1X1X1X1X1X1X1X1X1X1X' j Y.Y.p.d 4 4X4X4X",
"X D.1X;Xb c c c m.1X1X1X1X1X1X1X1X1X1X1X1X1X' j Y.Y.Y.I.u 4X4X4X",
"X D.1X1X/ c c c D :X1X1X1X1X1X1X1X1X1X1X1X1X_ f r.,.O. .#.- 4X4X",
"X D.1X1XW.c c c c <.:X1X1X1X1X1X[.C.1X1Xl.] V V z.S.].! a.U > 4X",
"X D.1X1X1X$.c c c c K h.W.W.j.&.c -.1X1X}.4.|.'.3X3X XY I.I.q 4X",
"O N.1X1X1X;XQ x c c c c c c c c c -.1X1X1XB.[ '.3X3X5.r.Y.Y.j 4X",
": 3.1X1X1X1X,Xd.m c c c c c x c b k.1X1X1X1Xs A.3X2XH I.Y.Y.U > ",
"4X0 #X1X1X1X1X1X*XZ.1.$.~ &.6.C.;X1X1X1X1X~.O B 2Xv.,.I.Y.Y.0.4 ",
"4X: t n..X%X%X%X%X$X%X%X$X%X%X%X$X%X$X{.7.> S y.2.K L.Y.Y.Y.s.- ",
"4X4X% % X X X X X X X X X X X X X X X X r | Y.Y.o.:.Y.Y.Y.Y.+.8 ",
"4X4X4X4X4X4X4X4X4X> ..p.p.p.p.p.i.p.p.G.Y.Y.Y.Y.Y.Y.Y.Y.Y.Y.P O ",
"4X4X4X4X4X4X4X4X4X4 U I.Y.I.I.Y.I.I.I.I.Y.Y.Y.Y.Y.Y.Y.Y.Y.Y.h 4X",
"4X4X4X4X4X4X4X4X4X4Xk Y.Y.Y.Y.Y.Y.Y.Y.Y.Y.Y.Y.Y.Y.Y.Y.Y.Y.L.4 4X",
"4X4X4X4X4X4X4X4X4X4XO #.Y.Y.Y.Y.Y.Y.Y.Y.Y.Y.Y.Y.Y.Y.Y.Y.Y.Z 4 4X",
"4X4X4X4X4X4X4X4X4X4X4X8 J.Y.Y.Y.Y.Y.Y.Y.Y.Y.Y.Y.Y.Y.Y.I.w.- 4X4X",
"4X4X4X4X4X4X4X4X4X4X4X> x Y.Y.Y.Y.Y.Y.Y.Y.Y.Y.Y.Y.Y.Y.L.w 4X4X4X",
"4X4X4X4X4X4X4X4X4X4X4X4X- h G.Y.Y.Y.Y.Y.Y.Y.Y.Y.Y.Y.e.e 4 4X4X4X",
"4X4X4X4X4X4X4X4X4X4X4X4X4X- 4 X.Y.Y.Y.Y.Y.I.Y.Y.I.F O 4X4X4X4X4X",
"4X4X4X4X4X4X4X4X4X4X4X4X4X4X4X> y c { u.J.w.R l q 4 4X4X4X4X4X4X",
"4X4X4X4X4X4X4X4X4X4X4X4X4X4X4X4X4X4X4 > X 4 4 4X4X4X4X4X4X4X4X4X"
};
